<svg xmlns="http://www.w3.org/2000/svg" viewBox="0 0 601.23 268.87"><g id="fd6413a8-f105-487c-a04b-b2e76174521f" data-name="Capa 2"><g id="636d3edd-68d4-4f97-be90-86d11115fdf0" data-name="Capa 1"><path d="M46.91,68.56Q33.74,92,33.74,112q0,14.24,6.49,20.38t21.6,6.14h54.22q13.45,0,13.46,9.17A12.55,12.55,0,0,1,124.78,158q-4.73,3.75-13.31,3.75H54.91q-14.14,0-22.63-3.9a41.26,41.26,0,0,1-18.53-16.82A49.83,49.83,0,0,1,7,115.17q0-19.5,11.9-46.61h-8Q0,68.56,0,59.2a12.79,12.79,0,0,1,4.49-9.9,15.71,15.71,0,0,1,10.92-4H32.18a127.24,127.24,0,0,1,23.6-28.18Q74.71,0,96.65,0q14.43,0,23.89,8.87T130,31.5q0,19.61-18.24,30-12.39,7-39.4,7ZM61.44,45.25H80.36q24.28,0,24.28-13a8.23,8.23,0,0,0-3.17-6.68,12.31,12.31,0,0,0-8-2.58q-7.52,0-16.19,6A64.57,64.57,0,0,0,61.44,45.25Z" style="fill:#343a40"/><path d="M179.05,113.91h10.73q12.28,0,12.29,8.58a11.09,11.09,0,0,1-4.39,9.31q-4.4,3.38-12.09,3.37H173.1q-8.39,0-11.41-6.54-7.31,6.54-14.14,6.54H136.43q-10.73,0-17.31-7.66t-6.58-20q0-18.72,12.92-33.5T154.67,59.2q12.48,0,18.24,8.68,4.88-7.32,12.77-7.32a10,10,0,0,1,7.17,2.73A8.92,8.92,0,0,1,195.73,70a17.81,17.81,0,0,1-1.56,6.54l-1.08,2.63Zm-35.4.48h2.44q8,0,10.63-6.53L163.55,91a15.19,15.19,0,0,0,1.36-5.56,5.65,5.65,0,0,0-2.58-4.58,10,10,0,0,0-6.2-1.95q-7.11,0-13.84,8.29t-6.73,17.16Q135.56,114.4,143.65,114.39Z" style="fill:#343a40"/><path d="M323.09,113.91H334.7q12.29,0,12.29,8.68a11,11,0,0,1-4.34,9.26q-4.35,3.32-12,3.32H310.8q-6.44,0-10.43-3.42a11.19,11.19,0,0,1-4-9q0-3.8,2.63-10.34l9.17-22.33A9.77,9.77,0,0,0,309,86.5q0-6.33-6.43-6.34-5,0-9.85,4.49a31.53,31.53,0,0,0-7.81,11.9l-10.92,26.91q-5.37,13.08-15.6,13.07a9.69,9.69,0,0,1-6.83-2.63,8.25,8.25,0,0,1-2.83-6.24,18.78,18.78,0,0,1,1.47-6.63l1.07-2.64,11-27.21a16.42,16.42,0,0,0,1.46-5.65,4.78,4.78,0,0,0-1.95-3.76,7,7,0,0,0-4.58-1.61q-10.53,0-16.68,15.22l-11.41,28q-5.37,13.15-15.51,13.16A10,10,0,0,1,206.7,134a8.15,8.15,0,0,1-2.88-6.29,18.25,18.25,0,0,1,1.47-6.63l1.07-2.64,19.41-47.78q4.09-10.05,12.28-10,8.49,0,10.54,8,6.63-5.65,10.77-7.51a24.85,24.85,0,0,1,10.19-1.85q13.06,0,19.6,11.41Q300.09,59.2,313.73,59.2q9.36,0,15.65,5.41a16.87,16.87,0,0,1,6.29,13.31,27,27,0,0,1-2.14,10.24Z" style="fill:#343a40"/><path d="M374.1,106.59q0,7.32,11,7.32h29q12.29,0,12.29,8.68a11,11,0,0,1-4.34,9.26q-4.33,3.32-12.14,3.32h-27.6q-15.41,0-23.46-7.61t-8-22.24a46,46,0,0,1,12.73-32.47Q376.24,59.2,393.8,59.2q12.76,0,20.53,6.68t7.75,17.6q0,13.17-10.73,19.5-6,3.61-17.75,3.61Zm4.68-17.75h10.73q10.42,0,10.14-4.58-.3-5.17-6.73-5.17Q384,79.09,378.78,88.84Z" style="fill:#343a40"/><path d="M454.45,81.92l-3.31,8.19Q446.66,101,439.44,101a10.51,10.51,0,0,1-7.32-2.63,8.42,8.42,0,0,1-2.92-6.53c0-1.5.71-4,2.14-7.61l11-27.21q4-9.86,11.32-9.85T462.55,54l.78,3c.39,1.56,1,2.54,1.76,2.93s2.69.58,5.75.58h22.82q12.78,0,12.78,9,0,12.39-16.19,12.39l-1.08,1q-15.5,14.83-15.5,22.92t9,8.1h12.29q12.38,0,12.38,8.58a11.07,11.07,0,0,1-4.34,9.36q-4.34,3.32-12.14,3.32H471.72a20.71,20.71,0,0,1-16-6.73q-6.19-6.73-6.19-17.46a28.62,28.62,0,0,1,3.31-13.26q3.32-6.43,11.71-15.8Z" style="fill:#343a40"/><path d="M578.21,113.91h10.73q12.28,0,12.29,8.58a11.09,11.09,0,0,1-4.39,9.31q-4.4,3.38-12.09,3.37H572.26q-8.38,0-11.41-6.54-7.3,6.54-14.14,6.54H535.59q-10.73,0-17.31-7.66t-6.58-20q0-18.72,12.92-33.5T553.83,59.2q12.48,0,18.24,8.68,4.88-7.32,12.77-7.32A10,10,0,0,1,592,63.29,8.92,8.92,0,0,1,594.89,70a17.81,17.81,0,0,1-1.56,6.54l-1.08,2.63Zm-35.4.48h2.44q8,0,10.63-6.53L562.71,91a15.4,15.4,0,0,0,1.36-5.56,5.65,5.65,0,0,0-2.58-4.58,10,10,0,0,0-6.2-1.95q-7.11,0-13.85,8.29t-6.72,17.16Q534.72,114.4,542.81,114.39Z" style="fill:#343a40"/><path d="M336.89,224.59A48,48,0,0,0,358,229.83c8.74,0,13.35-3.62,13.35-9.11,0-5.24-4-8.23-14.09-11.72-14-5-23.2-12.73-23.2-24.95,0-14.34,12.1-25.19,31.8-25.19,9.61,0,16.47,1.87,21.46,4.24L383,178.31a39.4,39.4,0,0,0-17.47-4c-8.23,0-12.22,3.87-12.22,8.11,0,5.36,4.61,7.73,15.59,11.85,14.84,5.49,21.7,13.22,21.7,25.07,0,14.09-10.72,26.07-33.8,26.07-9.6,0-19.08-2.62-23.82-5.24Z" style="fill:#343a40"/><path d="M399.38,155.61h18.95v34.93h.25a20.32,20.32,0,0,1,7.49-6.36,21.63,21.63,0,0,1,9.85-2.37c12.1,0,21.33,8.35,21.33,26.81v35.55h-19V210.62c0-8-2.74-13.47-9.85-13.47a10,10,0,0,0-9.48,6.73,11,11,0,0,0-.63,4.12v36.17H399.38Z" style="fill:#343a40"/><path d="M529.59,213c0,22.32-15.84,32.55-32.18,32.55-17.83,0-31.55-11.72-31.55-31.43s13-32.43,32.68-32.43C517.12,181.68,529.59,194.53,529.59,213Zm-44.15.62c0,10.48,4.36,18.34,12.47,18.34,7.49,0,12.1-7.36,12.1-18.46,0-9-3.49-18.21-12.1-18.21C488.93,195.28,485.44,204.63,485.44,213.61Z" style="fill:#343a40"/><path d="M538.2,203.63c0-8-.25-14.71-.5-20.45h16.47l.87,8.48h.25c4.49-6.36,11.47-9.85,20.33-9.85,13.34,0,25.32,11.6,25.32,31.05,0,22.21-14.1,32.68-27.69,32.68-7.36,0-13.1-3-15.84-7h-.25v30.31h-19Zm19,14.35a19.76,19.76,0,0,0,.37,4,11.49,11.49,0,0,0,11.1,9c8.24,0,13.1-6.86,13.1-17.21,0-9.73-4.36-17.09-12.85-17.09a11.91,11.91,0,0,0-11.35,9.6,14.69,14.69,0,0,0-.37,3.37Z" style="fill:#343a40"/><circle cx="296.61" cy="223.84" r="20.78" style="fill:#007bff"/></g></g></svg>