<svg id="12427db6-350f-4dea-b641-5e14d755af57" data-name="Capa 1" xmlns="http://www.w3.org/2000/svg" viewBox="0 0 290 290"><path d="M154.63,294.71c-79.95,0-145-65-145-145s65.05-145,145-145,145,65,145,145S234.58,294.71,154.63,294.71Zm0-280c-74.44,0-135,60.56-135,135s60.56,135,135,135,135-60.56,135-135S229.07,14.71,154.63,14.71Z" transform="translate(-9.63 -4.71)" style="fill:#343a40"/><path d="M91.39,124.7V103.45h4.29V124.7Z" transform="translate(-9.63 -4.71)" style="fill:#0e1011"/><path d="M101.93,124.7V103.45h6.43l3.85,14.5,3.81-14.5h6.44V124.7h-4V108l-4.22,16.72h-4.13L105.92,108V124.7Z" transform="translate(-9.63 -4.71)" style="fill:#0e1011"/><path d="M148.11,124.7h-4.67l-1.85-4.82h-8.5l-1.75,4.82h-4.55l8.27-21.25h4.54Zm-7.9-8.41-2.93-7.88-2.87,7.88Z" transform="translate(-9.63 -4.71)" style="fill:#0e1011"/><path d="M162.5,116.89v-3.58h9.24v8.46a11.64,11.64,0,0,1-3.9,2.3,14.3,14.3,0,0,1-5.18,1,11.68,11.68,0,0,1-5.82-1.39,8.92,8.92,0,0,1-3.72-4,12.93,12.93,0,0,1-1.25-5.66,12.29,12.29,0,0,1,1.39-5.89,9.41,9.41,0,0,1,4.08-4,10.89,10.89,0,0,1,5.08-1.06,10.16,10.16,0,0,1,6.19,1.66,7.55,7.55,0,0,1,2.86,4.59l-4.26.79a4.57,4.57,0,0,0-1.69-2.47,5.15,5.15,0,0,0-3.1-.9,5.82,5.82,0,0,0-4.47,1.78,7.54,7.54,0,0,0-1.66,5.29q0,3.78,1.68,5.68a5.62,5.62,0,0,0,4.41,1.89,7.41,7.41,0,0,0,2.7-.53,8.93,8.93,0,0,0,2.33-1.29v-2.69Z" transform="translate(-9.63 -4.71)" style="fill:#0e1011"/><path d="M177.93,124.7V103.45h15.75v3.6H182.22v4.71h10.67v3.58H182.22v5.78h11.87v3.58Z" transform="translate(-9.63 -4.71)" style="fill:#0e1011"/><path d="M200,124.7V103.45h4.17l8.7,14.19V103.45h4V124.7h-4.3L204,110.84V124.7Z" transform="translate(-9.63 -4.71)" style="fill:#0e1011"/><path d="M133.12,160.32V139.07h4.18L146,153.26V139.07h4v21.25h-4.31l-8.56-13.85v13.85Z" transform="translate(-9.63 -4.71)" style="fill:#0e1011"/><path d="M155.87,149.83a13.66,13.66,0,0,1,1-5.45,10.28,10.28,0,0,1,2-2.91,8.37,8.37,0,0,1,2.75-1.92,11.66,11.66,0,0,1,4.58-.84,9.94,9.94,0,0,1,7.51,2.92q2.82,2.91,2.82,8.1t-2.79,8.05a11.16,11.16,0,0,1-15,0C156.8,155.87,155.87,153.21,155.87,149.83Zm4.42-.15a8,8,0,0,0,1.67,5.48,5.73,5.73,0,0,0,8.44,0q1.65-1.84,1.65-5.54a8,8,0,0,0-1.6-5.45,5.93,5.93,0,0,0-8.53,0Q160.29,146,160.29,149.68Z" transform="translate(-9.63 -4.71)" style="fill:#0e1011"/><path d="M55.71,174.7h7.84a15.3,15.3,0,0,1,4,.4,7.12,7.12,0,0,1,3.21,2,9.35,9.35,0,0,1,2,3.44,15.8,15.8,0,0,1,.69,5,14.17,14.17,0,0,1-.65,4.53,9.36,9.36,0,0,1-2.28,3.75,7.65,7.65,0,0,1-3,1.7,13,13,0,0,1-3.8.45H55.71ZM60,178.29v14.08h3.2a11.4,11.4,0,0,0,2.6-.21,4,4,0,0,0,1.73-.88,4.52,4.52,0,0,0,1.12-2.05,13.82,13.82,0,0,0,.44-3.89,12.68,12.68,0,0,0-.44-3.79,4.83,4.83,0,0,0-1.22-2.06,4.14,4.14,0,0,0-2-1,20.12,20.12,0,0,0-3.52-.2Z" transform="translate(-9.63 -4.71)" style="fill:#0e1011"/><path d="M79.26,196V174.7h4.29V196Z" transform="translate(-9.63 -4.71)" style="fill:#0e1011"/><path d="M88.77,189l4.18-.4a5,5,0,0,0,1.53,3.08,4.58,4.58,0,0,0,3.1,1,4.75,4.75,0,0,0,3.13-.88,2.61,2.61,0,0,0,1.05-2,2,2,0,0,0-.44-1.28,3.58,3.58,0,0,0-1.55-.92c-.5-.18-1.64-.49-3.43-.93a11.61,11.61,0,0,1-4.84-2.1,5.53,5.53,0,0,1-2-4.28,5.47,5.47,0,0,1,.92-3,5.77,5.77,0,0,1,2.65-2.16,10.7,10.7,0,0,1,4.18-.74q4,0,6,1.76a6.19,6.19,0,0,1,2.12,4.68l-4.29.19A3.67,3.67,0,0,0,100,178.6a4.31,4.31,0,0,0-2.72-.71,4.93,4.93,0,0,0-2.93.76,1.56,1.56,0,0,0-.68,1.32,1.6,1.6,0,0,0,.64,1.29,11.14,11.14,0,0,0,3.94,1.42,21.48,21.48,0,0,1,4.63,1.53,6,6,0,0,1,2.35,2.16,6.7,6.7,0,0,1-.16,6.81,6.17,6.17,0,0,1-2.87,2.37,12.21,12.21,0,0,1-4.63.77,9.21,9.21,0,0,1-6.19-1.86A8.09,8.09,0,0,1,88.77,189Z" transform="translate(-9.63 -4.71)" style="fill:#0e1011"/><path d="M111.89,196V174.7h6.88a24.34,24.34,0,0,1,5.1.32,5.51,5.51,0,0,1,3.06,2.08,6.57,6.57,0,0,1,1.23,4.13,6.82,6.82,0,0,1-.71,3.29,5.81,5.81,0,0,1-1.8,2.1,6.26,6.26,0,0,1-2.23,1,24.75,24.75,0,0,1-4.45.3h-2.79v8Zm4.29-17.66v6h2.34a11.27,11.27,0,0,0,3.4-.33,2.8,2.8,0,0,0,1.34-1.05,2.86,2.86,0,0,0,.48-1.65,2.76,2.76,0,0,0-.68-1.91,2.94,2.94,0,0,0-1.72-.94,20.1,20.1,0,0,0-3.09-.15Z" transform="translate(-9.63 -4.71)" style="fill:#0e1011"/><path d="M133,185.45a13.66,13.66,0,0,1,1-5.45,10.28,10.28,0,0,1,2-2.91,8.19,8.19,0,0,1,2.75-1.91,11.48,11.48,0,0,1,4.58-.85,10,10,0,0,1,7.51,2.92q2.82,2.91,2.82,8.1t-2.79,8.05a9.9,9.9,0,0,1-7.48,2.91,10,10,0,0,1-7.54-2.89Q133,190.53,133,185.45Zm4.42-.14a8,8,0,0,0,1.67,5.47,5.73,5.73,0,0,0,8.44,0q1.65-1.84,1.65-5.54a8,8,0,0,0-1.6-5.45,5.93,5.93,0,0,0-8.53,0Q137.45,181.64,137.46,185.31Z" transform="translate(-9.63 -4.71)" style="fill:#0e1011"/><path d="M159.27,196V174.7h4.18l8.69,14.19V174.7h4V196h-4.31l-8.56-13.86V196Z" transform="translate(-9.63 -4.71)" style="fill:#0e1011"/><path d="M182.76,196V174.7h4.29V196Z" transform="translate(-9.63 -4.71)" style="fill:#0e1011"/><path d="M193.38,174.7h8.49a24.49,24.49,0,0,1,3.76.21,5.56,5.56,0,0,1,2.22.87,5.49,5.49,0,0,1,1.63,1.78,4.77,4.77,0,0,1,.65,2.49,5,5,0,0,1-3,4.6,5.58,5.58,0,0,1,3,1.93,5.11,5.11,0,0,1,1.05,3.21,6.29,6.29,0,0,1-.68,2.81,5.5,5.5,0,0,1-1.84,2.19,5.92,5.92,0,0,1-2.87,1c-.72.08-2.44.13-5.18.15h-7.23Zm4.29,3.53v4.92h2.81c1.67,0,2.71,0,3.12-.08a2.8,2.8,0,0,0,1.73-.76,2.24,2.24,0,0,0,.63-1.66,2.35,2.35,0,0,0-.54-1.6,2.44,2.44,0,0,0-1.62-.74c-.42-.05-1.65-.08-3.67-.08Zm0,8.45v5.69h4a18.39,18.39,0,0,0,2.94-.14,2.49,2.49,0,0,0,2.16-2.65,2.74,2.74,0,0,0-.46-1.62,2.65,2.65,0,0,0-1.34-1,14.66,14.66,0,0,0-3.81-.31Z" transform="translate(-9.63 -4.71)" style="fill:#0e1011"/><path d="M217.14,196V174.87h4.3v17.5H232.1V196Z" transform="translate(-9.63 -4.71)" style="fill:#0e1011"/><path d="M237.39,196V174.7h15.75v3.59H241.68V183h10.67v3.58H241.68v5.79h11.87V196Z" transform="translate(-9.63 -4.71)" style="fill:#0e1011"/></svg>